<svg width="95" height="8" viewBox="0 0 95 8" fill="none" xmlns="http://www.w3.org/2000/svg">
<mask id="path-1-inside-1_202_159" fill="white">
<path d="M94.354 4.03626C94.549 3.84026 94.549 3.52426 94.354 3.32826L91.172 0.14625C90.976 -0.04875 90.66 -0.04875 90.464 0.14625C90.269 0.34225 90.269 0.658258 90.464 0.854258L93.293 3.68226L90.464 6.51026C90.269 6.70626 90.269 7.02227 90.464 7.21827C90.66 7.41327 90.976 7.41327 91.172 7.21827L94.354 4.03626ZM0 4.18226H94V3.18226H0V4.18226Z"/>
</mask>
<path d="M94.354 4.03626C94.549 3.84026 94.549 3.52426 94.354 3.32826L91.172 0.14625C90.976 -0.04875 90.66 -0.04875 90.464 0.14625C90.269 0.34225 90.269 0.658258 90.464 0.854258L93.293 3.68226L90.464 6.51026C90.269 6.70626 90.269 7.02227 90.464 7.21827C90.66 7.41327 90.976 7.41327 91.172 7.21827L94.354 4.03626ZM0 4.18226H94V3.18226H0V4.18226Z" fill="#FE9DBE"/>
<path d="M94.354 4.03626L97.8895 7.57181L97.8986 7.56274L94.354 4.03626ZM94.354 3.32826L97.8986 -0.198235L97.8895 -0.207277L94.354 3.32826ZM91.172 0.14625L94.7075 -3.3893L94.6985 -3.39831L91.172 0.14625ZM90.464 0.14625L86.9375 -3.39831L86.9285 -3.3893L86.9194 -3.38023L90.464 0.14625ZM90.464 0.854258L86.9194 4.38075L86.9291 4.39041L90.464 0.854258ZM93.293 3.68226L96.8279 7.21841L100.365 3.68226L96.8279 0.146107L93.293 3.68226ZM90.464 6.51026L86.9291 2.9741L86.9194 2.98378L90.464 6.51026ZM90.464 7.21827L86.9194 10.7448L86.9285 10.7538L86.9375 10.7628L90.464 7.21827ZM91.172 7.21827L94.6985 10.7628L94.7075 10.7538L91.172 7.21827ZM0 4.18226H-5V9.18226H0V4.18226ZM94 4.18226V9.18226H99V4.18226H94ZM94 3.18226H99V-1.81774H94V3.18226ZM0 3.18226V-1.81774H-5V3.18226H0ZM97.8986 7.56274C100.034 5.41621 100.034 1.94831 97.8986 -0.198223L90.8094 6.85474C89.0639 5.1002 89.0639 2.26432 90.8094 0.509784L97.8986 7.56274ZM97.8895 -0.207277L94.7075 -3.38928L87.6365 3.68178L90.8185 6.86379L97.8895 -0.207277ZM94.6985 -3.39831C92.5519 -5.5339 89.0841 -5.5339 86.9375 -3.39831L93.9905 3.69081C92.236 5.4364 89.4 5.4364 87.6455 3.69081L94.6985 -3.39831ZM86.9194 -3.38023C84.7839 -1.2337 84.7839 2.23421 86.9194 4.38074L94.0086 -2.67222C95.7541 -0.91769 95.7541 1.9182 94.0086 3.67273L86.9194 -3.38023ZM86.9291 4.39041L89.7581 7.21841L96.8279 0.146107L93.9989 -2.6819L86.9291 4.39041ZM89.7581 0.146107L86.9291 2.97411L93.9989 10.0464L96.8279 7.21841L89.7581 0.146107ZM86.9194 2.98378C84.7839 5.13032 84.7839 8.59822 86.9194 10.7448L94.0086 3.69179C95.7541 5.44632 95.7541 8.28221 94.0086 10.0367L86.9194 2.98378ZM86.9375 10.7628C89.0841 12.8984 92.5519 12.8984 94.6985 10.7628L87.6455 3.67371C89.4 1.92813 92.236 1.92813 93.9905 3.67371L86.9375 10.7628ZM94.7075 10.7538L97.8895 7.5718L90.8185 0.500731L87.6365 3.68274L94.7075 10.7538ZM0 9.18226H94V-0.817739H0V9.18226ZM99 4.18226V3.18226H89V4.18226H99ZM94 -1.81774H0V8.18226H94V-1.81774ZM-5 3.18226V4.18226H5V3.18226H-5Z" fill="#FE9DBE" mask="url(#path-1-inside-1_202_159)"/>
</svg>
